<!-- Generated by IcoMoon.io -->
<svg version="1.1" xmlns="http://www.w3.org/2000/svg" width="32" height="32" viewBox="0 0 32 32">
<title>arrow-left</title>
<path d="M28 15.333c0-0.368-0.299-0.667-0.667-0.667h-21.333c-0.368 0-0.667 0.299-0.667 0.667s0.298 0.667 0.667 0.667h21.333c0.368 0 0.667-0.299 0.667-0.667z"></path>
<path d="M11.138 10.195c-0.26-0.26-0.682-0.26-0.943 0l-5.138 5.138 5.138 5.138c0.26 0.26 0.682 0.26 0.943 0s0.26-0.683 0-0.943l-4.195-4.195 4.195-4.195c0.26-0.26 0.26-0.682 0-0.943z"></path>
</svg>
