<!-- Generated by IcoMoon.io -->
<svg version="1.1" xmlns="http://www.w3.org/2000/svg" width="33" height="32" viewBox="0 0 33 32">
<title>arrow-right</title>
<path d="M5.247 15.333c0-0.368 0.298-0.667 0.667-0.667h21.333c0.368 0 0.667 0.299 0.667 0.667s-0.298 0.667-0.667 0.667h-21.333c-0.368 0-0.667-0.299-0.667-0.667z"></path>
<path d="M22.109 10.195c0.26-0.26 0.682-0.26 0.943 0l5.138 5.138-5.138 5.138c-0.26 0.26-0.683 0.26-0.943 0s-0.26-0.683 0-0.943l4.195-4.195-4.195-4.195c-0.26-0.26-0.26-0.682 0-0.943z"></path>
</svg>
