<!-- Generated by IcoMoon.io -->
<svg version="1.1" xmlns="http://www.w3.org/2000/svg" width="47" height="32" viewBox="0 0 47 32">
<title>mail</title>
<path fill="none" stroke-linejoin="miter" stroke-linecap="butt" stroke-miterlimit="4" stroke-width="2.3273" stroke="#000" d="M23.678 17.925l-0-0-0.013 0.009c-0.081 0.055-0.198 0.094-0.325 0.094h-0.010c-0.185 0-0.303-0.063-0.342-0.095l-0.002-0.002-19.788-16.767h40.25l-19.771 16.761zM29.192 18.878l14.477 11.958h-40.807l14.509-12.047 2.891 2.451c0.852 0.717 1.947 1.096 3.076 1.096s2.223-0.381 3.076-1.101l0.003-0.002 2.775-2.355zM14.051 15.975l-12.887 10.702v-21.622l12.887 10.92zM45.382 5.146v21.547l-12.868-10.631 12.868-10.916z"></path>
</svg>
