<!-- Generated by IcoMoon.io -->
<svg version="1.1" xmlns="http://www.w3.org/2000/svg" width="32" height="32" viewBox="0 0 32 32">
<title>pin</title>
<path d="M16 0c-6.58 0-11.933 5.355-11.933 11.938 0 9.807 10.745 19.384 11.203 19.787 0.209 0.184 0.469 0.276 0.73 0.276s0.522-0.092 0.73-0.276c0.457-0.403 11.203-9.979 11.203-19.787 0-6.583-5.353-11.938-11.933-11.938zM16 29.381c-2.376-2.302-9.723-10.023-9.723-17.443 0-5.364 4.362-9.728 9.723-9.728s9.723 4.364 9.723 9.728c0 7.419-7.348 15.141-9.723 17.443z"></path>
<path d="M16 6.377c-3.046 0-5.524 2.495-5.524 5.561s2.478 5.561 5.524 5.561 5.524-2.495 5.524-5.561c0-3.066-2.478-5.561-5.524-5.561zM16 15.289c-1.828 0-3.315-1.503-3.315-3.351s1.487-3.351 3.315-3.351 3.315 1.503 3.315 3.351c0 1.848-1.487 3.351-3.315 3.351z"></path>
</svg>
